<svg version="1.1" id="Layer_1" xmlns="http://www.w3.org/2000/svg" xmlns:xlink="http://www.w3.org/1999/xlink" x="0px" y="0px"
	 width="100%" viewBox="0 0 256 256" enable-background="new 0 0 256 256" xml:space="preserve">

<path fill="#FF5647" opacity="1.000000" stroke="none"
		d="
M12.000000,141.000000 
	C12.000000,97.870834 12.000000,55.241661 12.000000,12.306698 
	C90.054787,12.306698 167.764725,12.306698 245.737503,12.306698 
	C245.737503,90.025154 245.737503,167.617401 245.737503,245.604950 
	C168.122894,245.604950 90.412590,245.604950 12.000000,245.604950 
	C12.000000,210.998459 12.000000,176.249222 12.000000,141.000000 
M73.500000,21.000000 
	C56.080540,21.000000 38.661076,21.000000 21.398117,21.000000 
	C21.398117,93.418816 21.398117,165.129181 21.398117,236.734421 
	C93.388802,236.734421 164.981094,236.734421 236.690216,236.734421 
	C236.690216,164.758499 236.690216,93.048546 236.690216,21.000000 
	C182.420761,21.000000 128.460388,21.000000 73.500000,21.000000 
z"/>

<path fill="#FF5647" opacity="1.000000" stroke="none"
		d="
M150.220490,61.646049 
	C165.465790,66.351044 177.642883,81.259056 177.898697,97.807381 
	C178.007645,104.854546 178.107315,112.211716 176.299500,118.912231 
	C172.849777,131.698227 166.741592,137.754684 154.435699,144.375153 
	C163.718491,162.848236 174.949097,180.325714 184.027390,199.996140 
	C173.431152,199.996140 164.288086,200.098267 155.153183,199.871857 
	C153.959656,199.842270 152.362686,198.366501 151.704590,197.152832 
	C143.606018,182.216629 135.689453,167.181732 127.582092,152.250381 
	C126.844917,150.892731 125.152039,149.206238 123.839569,149.149918 
	C116.734184,148.845001 109.608826,149.005325 102.147774,149.005325 
	C102.147774,166.050232 102.147774,182.646957 102.147774,199.620941 
	C93.093262,199.620941 84.376274,199.620941 75.341614,199.620941 
	C75.341614,152.656067 75.341614,105.624474 75.341614,57.838249 
	C100.231682,59.117977 125.245354,55.403191 150.220490,61.646049 
M132.044312,135.984680 
	C131.686768,137.500046 131.329224,139.015411 130.966888,140.551071 
	C136.520813,141.999756 141.286819,140.600876 143.270416,135.959534 
	C147.500366,126.062035 150.773010,115.755402 154.432495,105.631416 
	C149.587433,103.741096 147.146240,105.226181 146.034210,109.704979 
	C144.901840,114.265717 143.416092,118.738708 141.723694,124.474937 
	C140.088257,118.729210 138.692322,114.531441 137.724411,110.237198 
	C136.628418,105.374802 134.054474,103.608803 129.136475,105.405029 
	C130.434204,109.238594 131.713516,113.092842 133.044739,116.929077 
	C134.384857,120.790970 135.833008,124.616043 137.132034,128.491364 
	C138.945023,133.899918 137.961487,135.249359 132.044312,135.984680 
z"/>

</svg>
